<?xml version="1.0" encoding="utf-8"?>
<!-- Generator: Adobe Illustrator 27.5.0, SVG Export Plug-In . SVG Version: 6.00 Build 0)  -->
<svg xmlns:xlink="http://www.w3.org/1999/xlink" version="1.1" xmlns="http://www.w3.org/2000/svg" x="0px" y="0px"
     viewBox="0 0 500 500" style="enable-background:new 0 0 500 500;" xml:space="preserve">
<g id="BACKGROUND">
	<rect id="XMLID_28_" y="0" style="fill:#FFFFFF;" width="500" height="500"/>
</g>
    <g id="OBJECTS">
	<g id="XMLID_55_">
	</g>
        <g id="XMLID_122_">
	</g>
        <g>
		<path style="fill:#E3A7AB;" d="M140.866,198.984c2.411-6.824,4.91-14.168,1.903-20.596c-2.748-5.875-9.582-9.415-11.204-15.695
			c-3.156-12.214,14.999-20.159,16.409-32.695c1.029-9.149-7.328-18.138-4.271-26.823c2.167-6.156,9.251-9.266,12.252-15.062
			c2.821-5.449,1.486-12.048,2.5-18.1c1.249-7.455,9.144-13.763,15.966-9.04c6.701,4.639,6.402,18.872,5.856,25.822
			c-0.848,10.791-3.325,21.935,0.062,32.215c3.157,9.582,11.149,17.36,12.598,27.344c1.241,8.554-2.595,17.255-1.27,25.796
			c1.337,8.618,7.641,15.552,10.94,23.625c6.722,16.452,0.333,34.994-0.13,52.76c-0.405,15.569,3.404,32.881-5.763,45.472
			c-5.672,7.79-15.186,11.794-24.533,14.135c-4.638,1.161-9.453,2.008-14.19,1.355c-16.251-2.243-25.077-20.741-26.11-37.114
			c-1.48-23.443,0.443-48.89,8.248-71.307C140.369,200.387,140.617,199.688,140.866,198.984z"/>
            <path style="fill:#DBC8AF;" d="M84.055,320.603c-6.276-16.01-7.631-33.572-1.934-50.964c3.808-11.626,10.455-22.74,10.364-34.973
			c-0.081-10.884-5.57-21.583-3.553-32.279c1.86-9.866,9.735-17.554,12.826-27.106c4.633-14.316-1.672-31.869,7.395-43.878
			c1.346-1.783,3.35-3.469,5.556-3.115c1.119,0.18,2.09,0.868,2.933,1.626c7,6.305,7.009,17.044,6.983,26.464
			c-0.028,10.251,3.042,15.185,8.285,23.136c5.036,7.638,4.464,11.831,4.538,20.982c0.06,7.424,4.357,14.24,4.963,21.568
			c0.548,6.631-1.896,12.852-2.393,19.444c-0.695,9.225,1.999,18.321,4.377,27.261c4.811,18.083,8.425,37.255,3.754,55.375
			c-2.923,11.337-10.354,23.878-20.251,30.439c-12.731,8.44-19.001,3.017-27.444-6.918
			C93.491,339.474,87.866,330.325,84.055,320.603z"/>
            <path style="fill:#DBC8AF;" d="M341.367,232.69c0.917-18.812,11.909-36.377,8.961-55.534c-0.976-6.338-3.539-12.492-3.285-18.9
			c0.553-13.962,13.978-24.366,16.437-38.12c1.527-8.547-1.387-17.383-0.135-25.975c1.252-8.592,10.393-17.285,17.871-12.873
			c1.936,1.142,3.365,2.981,4.519,4.911c6.643,11.104,5.187,24.991,5.176,37.93c-0.006,6.861,0.623,14.146,3.193,20.575
			c2.299,5.753,7.395,9.384,9.674,14.819c5.79,13.809-1.775,32.093-2.032,46.314c-0.278,15.374,4.755,25.768,7.522,40.48
			c1.556,8.271,0.37,16.79-0.979,25.098c-3.066,18.887-6.54,38.964-15.115,56.233c-3.398,6.843-8.749,16.608-17.691,16.197
			c-6.356-0.292-9.95-6.359-14.366-10.004c-6.949-5.736-14.708-8.832-17.546-18.321c-1.944-6.5-0.553-13.453-0.152-20.226
			c1.193-20.18-2.429-40.801-2.104-60.944C341.322,233.795,341.34,233.242,341.367,232.69z"/>
            <path style="fill:#EDE9DA;" d="M122.142,210.163c-2.077,3.893-4.025,7.86-5.837,11.89
			c-30.649,68.164-35.113,138.031-11.674,208.555c0.285,0.857,0.573,1.713,0.864,2.568c0.54,1.587,1.089,3.166,1.647,4.735
			c0.808,2.272,39.796,0,42.748,0c51.365,0,102.729,0,154.094,0c34.349,0,72.544-4.555,106.461-0.401
			c12.826-66.602-3.576-135.161-22.537-200.243c-15.621-53.619-53.528-100.617-109.99-111.961
			C211.081,111.877,152.635,153.02,122.142,210.163z"/>
            <g>
			<path style="fill:#DBC8AF;" d="M340.5,428.657h-181v-176.5c0-49.982,40.518-90.5,90.5-90.5h0c49.982,0,90.5,40.518,90.5,90.5
				V428.657z"/>
                <g>
				<defs>
					<path id="SVGID_1_"
                          d="M340.5,428.657h-181v-176.5c0-49.982,40.518-90.5,90.5-90.5h0c49.982,0,90.5,40.518,90.5,90.5V428.657z"
                    />
				</defs>
                    <clipPath id="SVGID_00000111875381255723166460000011290987812005964721_">
					<use xlink:href="#SVGID_1_" style="overflow:visible;"/>
				</clipPath>
                    <g style="clip-path:url(#SVGID_00000111875381255723166460000011290987812005964721_);">
					
						<line style="fill:none;stroke:#FFFFFF;stroke-width:2;stroke-miterlimit:10;" x1="282.25"
                              y1="157.157" x2="264.25" y2="236.157"/>

                        <line style="fill:none;stroke:#FFFFFF;stroke-width:2;stroke-miterlimit:10;" x1="325.25"
                              y1="187.157" x2="295.25" y2="231.157"/>

                        <line style="fill:none;stroke:#FFFFFF;stroke-width:2;stroke-miterlimit:10;" x1="349.25"
                              y1="220.157" x2="302.928" y2="242.21"/>

                        <line style="fill:none;stroke:#FFFFFF;stroke-width:2;stroke-miterlimit:10;" x1="349.25"
                              y1="292.157" x2="307.25" y2="292.157"/>

                        <line style="fill:none;stroke:#FFFFFF;stroke-width:2;stroke-miterlimit:10;" x1="349.75"
                              y1="316.157" x2="307.75" y2="316.157"/>

                        <line style="fill:none;stroke:#FFFFFF;stroke-width:2;stroke-miterlimit:10;" x1="350.25"
                              y1="340.157" x2="308.25" y2="340.157"/>

                        <line style="fill:none;stroke:#FFFFFF;stroke-width:2;stroke-miterlimit:10;" x1="350.75"
                              y1="364.157" x2="308.75" y2="364.157"/>

                        <line style="fill:none;stroke:#FFFFFF;stroke-width:2;stroke-miterlimit:10;" x1="351.25"
                              y1="388.157" x2="309.25" y2="388.157"/>
                        <path style="fill:none;stroke:#FFFFFF;stroke-width:2;stroke-miterlimit:10;"
                              d="M351.25,245.157c-1,0-43,11-43,11"/>

                        <line style="fill:none;stroke:#FFFFFF;stroke-width:2;stroke-miterlimit:10;" x1="347.25"
                              y1="267.157" x2="309.25" y2="275.157"/>
                        <path style="fill:none;stroke:#FFFFFF;stroke-width:2;stroke-miterlimit:10;"
                              d="M309.25,171.157c-1,2-20,42-20,42"/>

                        <line style="fill:none;stroke:#FFFFFF;stroke-width:2;stroke-miterlimit:10;" x1="249.25"
                              y1="143.657" x2="249.25" y2="423.657"/>

                        <line style="fill:none;stroke:#FFFFFF;stroke-width:2;stroke-miterlimit:10;" x1="216.75"
                              y1="157.157" x2="234.75" y2="236.157"/>

                        <line style="fill:none;stroke:#FFFFFF;stroke-width:2;stroke-miterlimit:10;" x1="173.75"
                              y1="187.157" x2="203.75" y2="231.157"/>

                        <line style="fill:none;stroke:#FFFFFF;stroke-width:2;stroke-miterlimit:10;" x1="149.75"
                              y1="220.157" x2="196.071" y2="242.21"/>

                        <line style="fill:none;stroke:#FFFFFF;stroke-width:2;stroke-miterlimit:10;" x1="149.75"
                              y1="292.157" x2="191.75" y2="292.157"/>

                        <line style="fill:none;stroke:#FFFFFF;stroke-width:2;stroke-miterlimit:10;" x1="149.25"
                              y1="316.157" x2="191.25" y2="316.157"/>

                        <line style="fill:none;stroke:#FFFFFF;stroke-width:2;stroke-miterlimit:10;" x1="148.75"
                              y1="340.157" x2="190.75" y2="340.157"/>

                        <line style="fill:none;stroke:#FFFFFF;stroke-width:2;stroke-miterlimit:10;" x1="148.25"
                              y1="364.157" x2="190.25" y2="364.157"/>

                        <line style="fill:none;stroke:#FFFFFF;stroke-width:2;stroke-miterlimit:10;" x1="147.75"
                              y1="388.157" x2="189.75" y2="388.157"/>

                        <line style="fill:none;stroke:#FFFFFF;stroke-width:2;stroke-miterlimit:10;" x1="351.25"
                              y1="407.157" x2="309.25" y2="407.157"/>

                        <line style="fill:none;stroke:#FFFFFF;stroke-width:2;stroke-miterlimit:10;" x1="147.75"
                              y1="407.157" x2="189.75" y2="407.157"/>
                        <path style="fill:none;stroke:#FFFFFF;stroke-width:2;stroke-miterlimit:10;"
                              d="M147.75,245.157c1,0,43,11,43,11"/>

                        <line style="fill:none;stroke:#FFFFFF;stroke-width:2;stroke-miterlimit:10;" x1="151.75"
                              y1="267.157" x2="189.75" y2="275.157"/>
                        <path style="fill:none;stroke:#FFFFFF;stroke-width:2;stroke-miterlimit:10;"
                              d="M189.75,171.157c1,2,20,42,20,42"/>
				</g>
			</g>
                <path style="fill:#DEA6A9;" d="M318.5,426.657h-137v-175.5c0-37.831,30.668-68.5,68.5-68.5h0c37.831,0,68.5,30.668,68.5,68.5
				V426.657z"/>
                <path style="fill:#FFC4C7;" d="M356.667,434.324H143.333c-2.117,0-3.833-1.716-3.833-3.833l0,0c0-2.117,1.716-3.833,3.833-3.833
				h213.333c2.117,0,3.833,1.716,3.833,3.833l0,0C360.5,432.608,358.784,434.324,356.667,434.324z"/>
                <g>
				<defs>
					<path id="SVGID_00000103231284326768377470000013338203626852539031_" d="M318.5,426.657h-137v-175.5
						c0-37.831,30.668-68.5,68.5-68.5h0c37.831,0,68.5,30.668,68.5,68.5V426.657z"/>
				</defs>
                    <clipPath id="SVGID_00000006673110147306076430000016175931975845216927_">
					<use xlink:href="#SVGID_00000103231284326768377470000013338203626852539031_"
                         style="overflow:visible;"/>
				</clipPath>
                    <path style="clip-path:url(#SVGID_00000006673110147306076430000016175931975845216927_);fill:#D99196;"
                          d="M318,409.949H215
					V251.289c0-28.443,23.057-51.5,51.5-51.5h0c28.443,0,51.5,23.057,51.5,51.5V409.949z"/>
			</g>
                <rect x="181.12" y="417.657" style="fill:#DB8C92;" width="137.639" height="9"/>
                <rect x="189" y="408.657" style="fill:#DB8C92;" width="129.759" height="9"/>
                <rect x="201" y="399.657" style="fill:#DB8C92;" width="117.759" height="9"/>
                <rect x="214" y="390.657" style="fill:#DB8C92;" width="104.759" height="9"/>
                <rect x="181.12" y="417.657" style="opacity:0.69;fill:#FFC4C7;" width="137.639" height="2.783"/>
                <rect x="189" y="408.657" style="opacity:0.69;fill:#FFC4C7;" width="129.759" height="2.241"/>
                <rect x="201" y="399.657" style="opacity:0.69;fill:#FFC4C7;" width="117.759" height="2.566"/>
                <rect x="214" y="390.657" style="opacity:0.69;fill:#FFC4C7;" width="104.759" height="2.891"/>
		</g>
            <path style="fill:#E3A7AB;" d="M420.25,440.657H79.75c-1.933,0-3.5-1.567-3.5-3.5l0,0c0-1.933,1.567-3.5,3.5-3.5h340.5
			c1.933,0,3.5,1.567,3.5,3.5l0,0C423.75,439.09,422.183,440.657,420.25,440.657z"/>
            <g>
			<g>
				<path style="fill:#6C4D8C;" d="M228.797,338.791c-3.074,0.529-5.461,3.259-8.646,3.183c0.078-0.04,0.133-0.151,0.076-0.242
					c-0.059-0.093-0.116-0.186-0.173-0.28c0.018-1.564,0.264-3.114,0.789-4.587c0.479-1.346,1.269-2.53,1.785-3.856
					c0.547-1.406,0.758-4.361-1.509-3.836c-2.276,0.526-3.218,3.393-3.373,5.504c-0.176,2.398,0.471,4.96,1.922,6.864
					c0.001,0.176,0.002,0.352,0.009,0.528c0.002,0.057,0.024,0.098,0.055,0.127c-0.076,0.176,0.01,0.419,0.251,0.396
					c1.424-0.134,2.618,0.532,3.941,0.95c1.193,0.377,2.437,0.449,3.669,0.263c1.256-0.19,2.47-0.614,3.616-1.174
					c0.822-0.402,1.88-0.871,2.194-1.841C234.211,338.29,230.059,338.573,228.797,338.791z"/>
                <g>
					<path style="fill:#6C4D8C;" d="M215.946,337.109c-0.447-1.399-2.013-3.613-3.636-2.78c-2.678,1.376,0.331,6.135,0.992,8.02
						c0.666,1.9,1.132,4.014,1.145,6.08c0.872-2.17,1.521-4.383,1.758-6.75C216.356,340.165,216.414,338.574,215.946,337.109z"/>
                    <path style="fill:#6C4D8C;" d="M223.344,346.303c-1.109-0.303-2.284-0.249-3.389,0.043c-1.939,0.512-3.548,1.829-4.985,3.239
						c0.906-0.243,1.99-0.31,2.415-0.341c2.064-0.147,4.466,0.419,6.457-0.276c0.649-0.227,1.794-0.959,1.17-1.846
						C224.721,346.708,223.789,346.424,223.344,346.303z"/>
                    <path style="fill:#6C4D8C;" d="M225.583,347.012c-0.932-1.548-3.825-1.551-5.283-1.242c-2.374,0.502-4.331,2.101-5.907,3.945
						c0.003-0.03,0.006-0.06,0.009-0.09c0.008-0.01,0.017-0.017,0.023-0.03c1.487-2.844,2.303-6.222,2.379-9.449
						c0.057-2.447-0.801-6.136-3.661-6.529c-2.777-0.382-2.436,3.561-1.832,5.22c0.603,1.655,1.442,3.185,1.943,4.887
						c0.317,1.077,0.513,2.187,0.646,3.303c0.068,0.566,0.12,1.135,0.166,1.704c0.035,0.427,0.095,1.103-0.18,1.457
						c-0.067,0.087-0.163,0.188-0.12,0.29c0.026,0.064,0.101,0.094,0.167,0.088c0.067-0.006,0.128-0.039,0.186-0.073
						c0.703-0.396,1.52-0.487,2.311-0.608c0.726-0.111,1.46-0.142,2.193-0.15c1.364-0.015,2.743,0.114,4.104-0.013
						C223.782,349.621,226.583,348.672,225.583,347.012z"/>
				</g>
                <g>
					<path style="fill:#6C4D8C;" d="M211.011,344.687c-0.209-0.77-0.479-1.572-1.007-2.171c-0.702-0.797-1.899-1.188-2.703-0.28
						c-1.116,1.262-0.288,3.439,0.202,4.798c0.484,1.342,1.093,2.63,1.596,3.963c0.563,1.493,0.95,3.013,0.915,4.563
						c0.595-2.225,1.305-4.393,1.405-6.756C211.479,347.422,211.373,346.022,211.011,344.687z"/>
                    <path style="fill:#6C4D8C;" d="M216.97,351.706c-0.956,0.251-1.826,0.779-2.616,1.378c-1.128,0.853-2.107,1.876-3.071,2.914
						c2.176-1.402,5.449-1.106,7.682-2.03c0.741-0.306,2.071-1.185,0.308-2.205C218.635,351.393,217.644,351.53,216.97,351.706z"/>
                    <path style="fill:#6C4D8C;" d="M220.364,352.062c-1.003-1.674-3.636-0.943-4.956-0.238c-2.005,1.071-3.878,2.947-5.247,4.86
						c1.114-2.826,1.816-6.109,1.712-9.119c-0.071-2.078-0.662-6.28-3.377-6.317c-2.83-0.038-2.12,3.817-1.544,5.505
						c1.157,3.387,3.318,6.736,2.653,10.478c-0.009,0.041-0.019,0.081-0.027,0.122c-0.002,0.011-0.001,0.021-0.001,0.031
						c-0.003,0.017-0.006,0.033-0.009,0.05c-0.019,0.094,0.08,0.133,0.14,0.091c0.046,0.006,0.093-0.011,0.124-0.055
						c0.008,0.001,0.016,0.003,0.025,0.003c-0.028,0.099,0.102,0.196,0.187,0.131c1.077-0.827,2.066-1.533,3.374-1.933
						c1.441-0.441,2.946-0.58,4.413-0.895C218.928,354.542,221.38,353.757,220.364,352.062z"/>
				</g>
                <g>
					<path style="fill:#6C4D8C;" d="M206.954,361.38c0.306-2.027,0.559-4.067,0.472-6.12c-0.055-1.311-0.219-2.673-0.667-3.908
						c-0.284-0.782-0.706-1.611-1.475-1.984c-0.744-0.361-1.777-0.156-2.128,0.68c-0.545,1.299,0.292,2.952,0.87,4.074
						c0.582,1.131,1.274,2.196,1.833,3.341C206.471,358.717,206.833,360.026,206.954,361.38z"/>
                    <path style="fill:#6C4D8C;" d="M213.422,358.576c-0.406,0.044-0.796,0.165-1.174,0.32c-0.662,0.271-1.265,0.666-1.837,1.101
						c-0.795,0.605-1.472,1.303-2.102,2.054c0.621-0.342,1.278-0.624,1.879-0.879c0.746-0.316,1.513-0.579,2.293-0.789
						c0.379-0.102,0.765-0.173,1.144-0.27c0.626-0.16,0.7-0.041,0.762-0.845C214.453,358.397,214.234,358.488,213.422,358.576z"/>
                    <path style="fill:#6C4D8C;" d="M215.212,358.434c-1.204-0.807-2.932-0.159-4.039,0.499c-1.481,0.88-2.851,2.189-3.787,3.703
						c-0.084,0.062-0.163,0.129-0.243,0.194c0.536-2.959,0.993-6.009,0.613-9.015c-0.246-1.944-1.053-5.567-3.668-5.068
						c-2.335,0.446-1.41,3.577-0.736,5.012c0.722,1.535,1.708,2.922,2.382,4.483c0.676,1.564,0.774,3.179,1.145,4.818
						c0.027,0.122,0.071,0.263,0.186,0.302c0.27,0.093,1.119-0.597,1.362-0.742c0.502-0.3,1.005-0.602,1.538-0.841
						c1.115-0.501,2.266-0.862,3.45-1.14C214.173,360.461,216.807,359.504,215.212,358.434z"/>
				</g>
                <g>
					<path style="fill:#6C4D8C;" d="M209.117,363.967c-0.098,0.069-0.197,0.137-0.295,0.206c-0.691,0.481-1.311,1.105-1.858,1.749
						c-0.57,0.671-1.059,1.408-1.469,2.191c1.003-1.134,2.318-2.01,3.632-2.643c0.213-0.103,0.973-0.275,1.113-0.484
						C210.207,363.703,209.833,363.363,209.117,363.967z"/>
                    <path style="fill:#6C4D8C;" d="M204.325,368.952c0.206-1.995,0.285-3.978-0.137-5.982c-0.267-1.269-0.699-2.553-1.403-3.636
						c-0.769-1.184-2.35-2.26-3.475-0.832c-2.087,2.65,1.841,5.701,3.326,7.436C203.401,366.831,204.038,367.842,204.325,368.952z"
                    />
                    <path style="fill:#6C4D8C;" d="M210.918,363.405c-1.225-0.969-2.895,0.733-3.705,1.569c-1.009,1.043-1.78,2.263-2.33,3.599
						c0.277-2.174,0.172-4.444-0.387-6.509c-0.492-1.817-1.763-5.048-4.084-4.784c-2.352,0.268-2.453,3.296-1.557,4.962
						c1.529,2.841,5.139,4.572,5.29,8.066c-0.105,0.276-0.194,0.561-0.26,0.858c-0.04,0.18,0.23,0.28,0.299,0.104
						c0.016-0.042,0.035-0.082,0.052-0.124c0.073,0.03,0.163,0.005,0.182-0.103c0.01-0.061,0.016-0.121,0.024-0.181
						c0.034-0.129,0.065-0.26,0.096-0.39c1.057-2.142,2.751-3.615,4.924-4.626c0.582-0.27,1.61-0.459,1.876-1.165
						C211.515,364.212,211.292,363.701,210.918,363.405z"/>
				</g>
                <g>
					<path style="fill:#6C4D8C;" d="M207.919,369.13c-0.535,0.319-0.964,0.817-1.349,1.308c-0.708,0.903-1.34,1.879-1.897,2.889
						c-0.388,0.704-0.7,1.427-0.982,2.159c0.299-0.329,0.621-0.633,0.953-0.909c0.869-0.721,1.843-1.286,2.828-1.817
						c0.978-0.528,2.511-1.041,2.886-2.234C210.904,368.793,208.833,368.585,207.919,369.13z"/>
                    <path style="fill:#6C4D8C;" d="M202.018,377.574c-0.029-2.11-0.076-4.219-0.508-6.293c-0.262-1.258-0.614-2.655-1.357-3.704
						c-0.864-1.219-2.687-2.04-3.779-0.589c-1.199,1.593,0.336,2.937,1.359,3.961c0.738,0.74,1.448,1.513,2.093,2.342
						C200.849,374.604,201.619,376.001,202.018,377.574z"/>
                    <path style="fill:#6C4D8C;" d="M209.895,368.491c-2.173-0.998-3.904,1.734-4.886,3.305c-1.015,1.623-2.078,3.607-2.583,5.603
						c0.074-2.539-0.063-5.113-0.766-7.539c-0.56-1.935-1.95-4.778-4.375-4.073c-2.063,0.601-2.247,3.07-0.923,4.516
						c2.404,2.624,5.069,4.989,5.678,8.77c0.003,0.129,0.005,0.257,0.008,0.386c0.004,0.161,0.266,0.185,0.277,0.019
						c0.008-0.12,0.015-0.241,0.022-0.362c0.238-0.574,0.449-1.152,0.655-1.73c1.257-2.271,3.485-3.503,5.806-4.749
						c0.907-0.487,1.962-1.107,2.133-2.267C211.065,369.532,210.625,368.827,209.895,368.491z"/>
				</g>
                <g>
					<path style="fill:#6C4D8C;" d="M199.067,378.703c-0.57-1.261-1.27-2.582-2.208-3.592c-1.013-1.09-3.378-1.894-3.837,0.195
						c-0.389,1.771,1.641,2.793,2.79,3.588c0.896,0.62,1.745,1.31,2.51,2.097c0.878,0.903,1.745,2.006,2.276,3.227
						C200.313,382.325,199.875,380.492,199.067,378.703z"/>
                    <path style="fill:#6C4D8C;" d="M206.904,377.422c-0.712,0.168-1.306,0.614-1.838,1.115c-0.772,0.727-1.392,1.6-1.894,2.546
						c-0.621,1.167-1.046,2.417-1.462,3.671c0.619-0.675,1.436-1.213,2.135-1.621c1.594-0.931,4.408-1.791,5.124-3.747
						C209.528,377.858,208.018,377.158,206.904,377.422z"/>
                    <path style="fill:#6C4D8C;" d="M208.769,377.24c-1.889-1.371-4.105,0.726-5.184,2.238c-1.135,1.59-1.88,3.505-2.375,5.439
						c-0.153-2.501-0.959-5.012-2.063-7.185c-0.98-1.931-2.855-5.149-5.433-4.044c-0.822,0.352-1.3,1.147-1.245,2.07
						c0.075,1.268,1.043,2.164,1.988,2.819c1.301,0.901,2.589,1.756,3.692,2.922c1.235,1.306,1.956,2.746,2.665,4.366
						c0.013,0.118,0.025,0.237,0.038,0.355c-0.034,0.121-0.063,0.244-0.08,0.371c-0.012,0.091,0.081,0.179,0.16,0.159
						c0.075,0.1,0.261,0.101,0.273-0.054c0.008-0.113,0.012-0.228,0.017-0.341c0.689-1.044,1.356-1.861,2.463-2.558
						c1.176-0.741,2.475-1.248,3.636-2.017C208.693,380.866,210.775,378.696,208.769,377.24z"/>
				</g>
                <g>
					<path style="fill:#6C4D8C;" d="M205.581,385.862c-1.149,0.664-2.033,1.751-2.709,2.903c-0.836,1.423-1.357,2.961-1.798,4.533
						c0.562-0.799,1.295-1.487,2.012-1.962c1.94-1.285,5.054-1.476,5.952-4.06C209.898,384.801,206.78,385.169,205.581,385.862z"/>
                    <path style="fill:#6C4D8C;" d="M197.468,387.249c-0.615-1.028-1.32-2.053-2.262-2.787c-0.487-0.38-1.046-0.689-1.653-0.794
						c-0.604-0.104-1.248,0.095-1.33,0.794c-0.039,0.335,0.039,0.698,0.103,1.023c0.577,2.887,3.205,3.948,5.297,5.474
						c0.851,0.62,1.653,1.404,2.149,2.335C199.271,391.175,198.618,389.169,197.468,387.249z"/>
                    <path style="fill:#6C4D8C;" d="M208.795,385.02c-2.143-1.207-4.684,0.986-5.86,2.665c-1.178,1.681-2.06,3.824-2.491,5.962
						c-0.046-0.01-0.091-0.01-0.136-0.006c-0.376-2.626-1.507-5.22-2.926-7.361c-0.923-1.392-3.063-3.921-5.005-2.993
						c-0.816,0.39-0.64,1.509-0.494,2.26c0.233,1.197,0.836,2.242,1.682,3.081c2.128,2.108,5.87,3.031,6.409,6.369
						c-0.163,4.978-0.231,9.956-0.178,14.937c0.006,0.564,0.846,0.472,0.84-0.088c-0.052-4.945,0.011-9.887,0.174-14.829
						c0.646-1.272,1.268-2.397,2.564-3.244c1.279-0.836,2.814-1.112,4.106-1.936C208.839,388.969,210.996,386.26,208.795,385.02z"/>
				</g>
                <path style="fill:#6C4D8C;" d="M230.768,330.976c-9.515,7.599-17.206,17.895-22.444,29.069
					c-5.163,11.015-7.913,23.177-8.076,35.418c0.148-0.021,0.296-0.045,0.444-0.063c0.321-17.573,5.88-34.91,16.265-49.147
					c4.075-5.587,8.824-10.5,14.014-14.968C231.147,331.133,230.954,330.828,230.768,330.976z"/>
                <path style="fill:#6C4D8C;" d="M237.286,325.312c-2.014-1.388-4.836-0.361-6.477,1.157c-2.35,2.174-3.417,5.46-4.365,8.472
					c0.507,0.355,3.472-1.682,4.095-2.016c2.07-1.112,3.848-2.483,5.689-3.932C237.294,328.155,238.966,326.469,237.286,325.312z"/>
			</g>
                <path style="fill:#6C4D8C;" d="M175.165,373.455c0.056,0.058,0.111,0.118,0.167,0.176c-1.562-1.12-3.305-1.946-5.178-2.377
				c-1.485-0.342-4.233-0.519-5.072,1.238c-1,2.096,2.496,2.59,3.684,2.542c1.44-0.059,2.857-0.315,4.304-0.281
				c1.24,0.029,2.463,0.214,3.685,0.413c0.52,0.582,1.03,1.175,1.527,1.778c0.544,0.66,1.072,1.333,1.588,2.017
				c-1.286-1.149-2.7-2.143-4.365-2.594c-1.143-0.309-4.086-0.701-4.651,0.835c-0.683,1.859,2.217,2.344,3.313,2.434
				c1.211,0.099,2.425-0.007,3.637,0.026c0.625,0.017,1.247,0.099,1.857,0.24c0.352,0.082,0.747,0.117,1.058,0.323
				c0.361,0.239,0.535,0.695,0.787,1.032c0.31,0.415,0.594,0.855,0.877,1.293c0.175,0.271,0.347,0.543,0.518,0.817
				c0.083,0.133,0.34,0.733,0.474,0.773c-0.05-0.024-0.101-0.047-0.152-0.07c-1.376-1.259-2.963-2.254-4.7-2.907
				c-1.326-0.498-4.306-1.233-5.252,0.396c-1.015,1.747,1.946,2.414,2.96,2.528c1.434,0.161,2.878,0.068,4.316,0.155
				c1.358,0.083,2.925,0.221,3.755,1.481c0.485,0.736,0.854,1.567,1.253,2.354c0.47,0.925,0.917,1.863,1.342,2.812
				c-1.007-1.155-2.273-2.09-3.512-2.929c-1.551-1.051-3.073-2.11-4.539-0.359c-1.153,1.377,0.807,2.693,1.975,3.143
				c2.137,0.824,4.371-0.022,6.332,1.164c0.132,0.156,0.262,0.315,0.389,0.477c0.139,0.334,0.276,0.668,0.409,1.004
				c0.446,1.127,0.859,2.268,1.238,3.421c-0.76-0.965-1.868-1.692-2.859-2.345c-1.055-0.695-2.674-1.3-3.646-0.11
				c-0.894,1.095-0.126,2.274,0.974,2.724c2.081,0.852,4.367-0.04,6.126,1.742c0.006,0.006,0.014,0.009,0.021,0.014
				c0.314,1.196,0.554,2.44,1.01,3.57c0.065,0.16,0.34,0.101,0.328-0.076c-0.105-1.539-0.684-3.121-1.14-4.587
				c0.595-2.091,2.636-3.265,3.541-5.189c0.482-1.024,0.485-2.497-0.631-3.081c-1.349-0.706-2.463,0.856-2.891,1.991
				c-0.536,1.423-0.592,3.106-0.533,4.699c-0.323-0.956-0.667-1.904-1.036-2.842c-0.029-0.075-0.06-0.149-0.09-0.223
				c0.325-2.315,2.321-4.11,2.775-6.448c0.27-1.389,0.515-4.089-1.186-4.668c-3.128-1.064-2.629,5.996-2.324,9.346
				c-0.815-1.874-1.724-3.703-2.721-5.481c-0.107-2.506,0.953-4.817,1.276-7.289c0.188-1.439,0.169-4.03-1.697-4.286
				c-1.927-0.265-2.144,2.657-2.073,3.983c0.07,1.293,0.391,2.549,0.747,3.784c0.152,0.526,0.295,1.056,0.438,1.587
				c-0.531-0.86-1.079-1.711-1.653-2.541c-0.239-0.345-0.477-0.539-0.548-0.984c-0.059-0.366-0.023-0.74-0.014-1.108
				c0.017-0.695,0.102-1.386,0.194-2.074c0.18-1.337,0.396-2.691,0.223-4.043c-0.143-1.12-0.906-3.4-2.403-2.945
				c-1.552,0.472-0.957,3.157-0.65,4.248c0.486,1.728,1.256,3.339,1.858,5.022c-0.645-0.871-1.311-1.726-2.001-2.559
				c-0.417-0.504-0.923-0.961-1.191-1.577c-0.278-0.64-0.398-1.462-0.534-2.155c-0.311-1.588-0.435-3.208-0.756-4.794
				c-0.246-1.215-0.997-4.261-2.703-4.011c-1.805,0.264-0.917,3.342-0.463,4.323c0.591,1.276,1.422,2.447,2.162,3.632
				c0.45,0.72,0.896,1.449,1.365,2.161c-0.33-0.358-0.663-0.713-1.002-1.061c-0.923-0.95-1.92-2.12-3.043-2.876
				c-0.004-0.021-0.011-0.041-0.026-0.058c-1.742-2.011-3.091-4.531-5.25-6.111c-1.085-0.794-4.176-2.237-5.036-0.362
				c-0.384,0.837,0.177,1.582,0.796,2.08c0.791,0.636,1.733,1.019,2.626,1.464c0.866,0.432,1.798,0.743,2.671,1.175
				c0.878,0.434,1.734,0.915,2.564,1.44c0.77,0.487,1.573,1.033,2.275,1.566C173.801,372.036,174.514,372.781,175.165,373.455z"/>
                <path style="fill:#EDE9DA;" d="M175.531,401.853c0.744,5.131,9.453,9.184,20.114,9.184c10.661,0,19.37-4.052,20.114-9.184
				H175.531z"/>
                <path style="fill:#EDE9DA;" d="M206.951,426.886l-9.063-7.578l2.243-13.965l-7.85,1.164c0,2.328,0,12.801,0,12.801l-7.407,7.578
				H206.951z"/>
		</g>
            <g>
			<g>
				<path style="fill:#6C4D8C;" d="M348.329,343.258c0.106-0.254-0.167-0.549-0.428-0.425c-3.503,1.661-7.101,3.373-9.848,6.183
					c-1.174,1.2-2.173,2.578-2.849,4.119c-0.407,0.927-0.907,2.105-0.517,3.085c-0.758,0.861-2.077,2.05-2.492,3.115
					c1.4-3.566,2.276-7.309,2.025-11.154c-0.135-2.06-0.42-4.092-0.181-6.156c0.045-0.387-0.463-0.487-0.631-0.168
					c-1.634,3.087-3.317,6.311-3.506,9.868c-0.132,2.495,0.051,5.333,0.977,7.743c0.007,0.047,0.015,0.094,0.022,0.141
					c0.043,0.287,0.137,0.615,0.172,0.93c-0.014,0.011-0.026,0.023-0.04,0.034c-0.115,0.088-0.129,0.219-0.087,0.331
					c-1.091,1.497-2.123,3.038-3.103,4.601c0.463-4.694-0.922-9.737-3.15-13.767c-0.158-0.286-0.577-0.254-0.638,0.089
					c-0.857,4.792-1.835,11.881,2.933,15.069c-0.798,1.327-1.56,2.666-2.283,4.007c-0.286,0.531-0.565,1.065-0.841,1.601
					c-0.01,0.009-0.021,0.019-0.031,0.028c-0.04-2.508-0.21-5.076-0.79-7.504c-0.631-2.638-1.668-5.152-2.711-7.648
					c-0.15-0.358-0.617-0.171-0.61,0.171c0.064,3.254-0.113,6.651,0.345,9.878c0.329,2.32,1.436,4.389,3.162,5.951
					c0.001,0.013,0.002,0.025,0.003,0.037c0.007,0.07,0.041,0.123,0.085,0.165c-0.611,1.225-1.193,2.463-1.752,3.711
					c-0.041,0.016-0.083,0.031-0.124,0.047c-0.547-5.478-3.47-10.306-5.324-15.41c-0.103-0.283-0.567-0.22-0.589,0.082
					c-0.339,4.775-0.996,14.591,5.307,15.929c0.006,0.084,0.014,0.167,0.019,0.251c0.009,0.147,0.093,0.23,0.198,0.26
					c-0.543,1.251-1.061,2.514-1.557,3.785c-0.818-5-4.94-8.903-6.953-13.423c-0.15-0.338-0.652-0.191-0.616,0.172
					c0.283,2.81,0.733,5.656,1.803,8.286c0.53,1.303,1.22,2.548,2.119,3.634c0.44,0.531,0.928,1.022,1.461,1.46
					c0.722,0.594,1.637,0.842,1.403,1.942c-0.13,0.611-0.449,1.233-0.657,1.824c-0.131,0.371-0.743,1.493-0.637,1.856
					c-1.496-5.104-4.261-9.694-8.085-13.42c-0.207-0.201-0.556,0.043-0.514,0.301c0.842,5.15,2.316,12.24,8.126,13.899
					c0.032,0.119,0.067,0.238,0.097,0.358c-0.592,1.819-1.145,3.651-1.661,5.491c-1.286,4.58-2.437,9.232-3.217,13.927
					c-0.048,0.289,0.381,0.332,0.445,0.056c1.516-6.498,3.041-12.958,5.079-19.292c0.015-0.024,0.025-0.051,0.032-0.081
					c0.044-0.009,0.087-0.025,0.131-0.052c2.27-1.433,5.294-0.458,7.806-0.461c2.606-0.003,5.16-0.464,7.624-1.301
					c0.36-0.122,0.204-0.588-0.092-0.661c-4.766-1.165-10.972-2.414-15.007,1.055c0.275-0.82,0.655-1.647,0.866-2.484
					c0.152-0.604,0.123-1.038,0.61-1.51c0.871-0.847,2.217-0.952,3.344-1.198c1.633-0.357,3.286-0.625,4.902-1.061
					c2.565-0.691,4.857-2.035,6.765-3.876c0.176-0.17,0.146-0.543-0.153-0.56c-4.745-0.275-10.269,0.474-13.786,3.874
					c0.44-1.075,0.898-2.143,1.372-3.204c4.078-1.45,8.667-1.196,12.39-3.629c0.242-0.158,0.103-0.536-0.157-0.573
					c-3.88-0.545-8.322,0.322-11.556,2.717c0.485-1.043,0.988-2.077,1.508-3.102c2.164-0.348,4.294-0.739,6.492-0.886
					c2.083-0.139,4.165-0.043,6.163-0.739c0.291-0.101,0.231-0.49-0.002-0.61c-3.773-1.931-8.297-1.765-11.758,0.516
					c0.751-1.407,1.538-2.795,2.367-4.158c0.044,0.001,0.09-0.005,0.134-0.02c0.031-0.011,0.063-0.022,0.095-0.032
					c0.092-0.032,0.146-0.094,0.171-0.167c0.457,0.646,2.783,0.795,3.376,0.881c1.305,0.188,2.624,0.265,3.942,0.243
					c2.693-0.044,5.334-0.556,7.866-1.464c0.32-0.115,0.218-0.581-0.087-0.629c-3.092-0.486-6.028-1.948-9.192-1.974
					c-1.9-0.016-3.739,0.529-5.301,1.558c0.744-1.162,1.515-2.308,2.321-3.431c0.141-0.196,0.288-0.385,0.431-0.579
					c0.004,0.003,0.009,0.006,0.013,0.009c0.107,0.075,0.216,0.079,0.306,0.041c0.901,0.269,1.917,0.146,2.843,0.121
					c1.5-0.04,3.004-0.108,4.499-0.246c2.502-0.231,4.982-0.758,7.026-2.296c0.242-0.182,0.109-0.535-0.161-0.589
					c-4.22-0.832-9.167-1.314-12.989,0.963c0.985-1.227,2.005-2.417,3.058-3.579C341.501,353.633,345.977,348.913,348.329,343.258z"
                />
                <path style="fill:#6C4D8C;" d="M303.554,379.103c0.088,0.063,0.176,0.126,0.264,0.19c0.573,2.285,1.078,4.587,1.514,6.902
					c-0.065-0.074-0.13-0.149-0.194-0.223c-1.018-1.166-2.175-2.207-3.447-3.092c-1.201-0.835-2.506-1.544-3.869-2.076
					c-1.666-0.651-3.434-0.973-5.051-1.755c-0.235-0.114-0.465,0.201-0.31,0.399c3.356,4.301,7.807,7.976,13.268,8.971
					c0.504,2.994,0.892,6.008,1.159,9.033c0.349,3.964,0.461,7.924,0.387,11.885h0.75c0.141-6.811-0.349-13.649-1.452-20.4
					c0.027-0.037,0.047-0.079,0.048-0.136c0.001-0.113-0.007-0.222-0.02-0.329c0.004-0.008,0.002-0.017,0.004-0.025
					c1.531-0.797,3.119-1.684,4.02-3.21c0.859-1.455,0.83-3.166,0.806-4.803c-0.003-0.232-0.364-0.264-0.439-0.059
					c-0.408,1.116-1.496,1.759-2.315,2.559c-0.577,0.564-1.11,1.168-1.531,1.859c-0.467,0.767-0.76,1.581-0.869,2.435
					c-0.502-2.804-1.106-5.591-1.81-8.353c0.366-0.136,0.829-0.232,1.024-0.323c0.421-0.198,0.825-0.426,1.211-0.686
					c0.992-0.667,1.848-1.537,2.489-2.546c1.125-1.771,1.533-3.844,1.288-5.915c-0.027-0.225-0.333-0.313-0.471-0.129
					c-1.399,1.864-3.232,3.362-4.563,5.278c-0.466,0.671-1.137,1.717-1.396,2.729c-0.45-1.668-0.932-3.327-1.453-4.973
					c2.269-2.063,4.113-4.535,5.362-7.344c1.184-2.662,2.06-5.748,1.369-8.651c-0.065-0.275-0.393-0.395-0.589-0.161
					c-3.545,4.213-6.107,8.86-6.747,14.326c-0.879-2.626-1.846-5.22-2.903-7.775c4.873-4.966,7.392-11.863,6.883-18.8
					c-0.026-0.358-0.514-0.375-0.652-0.087c-0.86,1.806-2.315,3.154-3.409,4.803c-0.927,1.397-1.466,2.985-1.971,4.572
					c-0.832,2.615-1.488,5.298-1.471,8.04c-0.78-1.816-1.601-3.613-2.469-5.385c3.227-3.893,4.367-9.352,2.825-14.188
					c-0.092-0.287-0.479-0.233-0.594-0.003c-1.895,3.808-3.189,8.316-3.003,12.643c-1.004-1.978-2.061-3.925-3.172-5.836
					c0.43-1.406,1.359-2.553,1.919-3.901c0.478-1.15,0.743-2.388,0.853-3.626c0.252-2.837-0.324-5.643-0.933-8.399
					c-0.065-0.294-0.439-0.357-0.577-0.077c-2.14,4.359-3.022,9.271-2.405,14.076c-0.019-0.031-0.037-0.062-0.055-0.092
					c-1.095-1.799-2.241-3.588-3.436-5.349c0.004-0.056-0.016-0.116-0.051-0.166c0.068-0.068,0.113-0.17,0.134-0.311l0.174-0.357
					c0.171-0.358,0.331-0.722,0.478-1.091c0.254-0.639,0.467-1.293,0.647-1.957c0.397-1.471,0.61-2.988,0.632-4.512
					c0.042-2.915-0.606-5.792-1.923-8.392c-0.109-0.215-0.424-0.245-0.527-0.003c-1.997,4.718-2.408,10.465-0.565,15.336
					c-1.272-1.812-2.6-3.589-3.995-5.302c-2.202-6.207-6.051-11.44-12.507-13.662c-0.173-0.06-0.436,0.073-0.379,0.29
					c1.574,6.098,6.226,11.974,12.394,13.914c1.435,1.817,2.832,3.66,4.175,5.547c-4.172-3.827-9.949-5.99-15.563-6.012
					c-0.295-0.001-0.463,0.326-0.225,0.538c2.612,2.322,5.281,4.303,8.556,5.608c1.498,0.597,3.052,1.052,4.638,1.347
					c0.961,0.179,2.492,0.637,3.488,0.208c0.073,0.068,0.149,0.133,0.222,0.203c0.07,0.066,0.154,0.071,0.23,0.045
					c0.494,0.729,0.982,1.465,1.457,2.211c0.663,1.04,1.304,2.094,1.933,3.154c-2.558-1.567-5.463-2.674-8.343-3.431
					c-1.673-0.439-3.377-0.756-5.097-0.938c-1.662-0.176-3.772,0.159-5.305-0.542c-0.315-0.144-0.496,0.279-0.284,0.489
					c2.742,2.71,6.138,4.672,9.87,5.655c1.73,0.456,3.512,0.698,5.301,0.709c1.454,0.009,3.156-0.089,4.335-1.034
					c0.023,0.005,0.044,0.007,0.066,0.004c1.228,2.113,2.388,4.265,3.482,6.451c-2.834-1.73-6.291-2.805-9.454-3.628
					c-3.76-0.979-7.606-1.425-11.488-1.438c-0.258-0.001-0.402,0.283-0.196,0.469c1.993,1.792,4.317,3.257,6.815,4.318
					c-0.956-0.166-1.916-0.313-2.88-0.442c-0.22-0.03-0.435,0.264-0.263,0.448c3.022,3.214,6.65,5.84,10.729,7.547
					c3.182,1.332,6.994,2.126,9.995-0.011c0.006,0.006,0.012,0.011,0.018,0.017c0.023,0.023,0.048,0.035,0.074,0.046
					c1.088,2.605,2.079,5.25,2.978,7.926c-4.617-4.579-11.241-6.623-17.338-8.421c-0.265-0.078-0.563,0.207-0.359,0.462
					c2.492,3.114,5.285,6.081,8.816,8.021c2.669,1.467,6.42,2.731,9.471,1.838c0.01-0.003,0.017-0.009,0.026-0.014
					c0.626,1.969,1.199,3.955,1.721,5.954c-3.912-3.507-10.003-4.354-15.005-4.27c-0.291,0.005-0.32,0.384-0.149,0.543
					c2.403,2.225,5.329,3.791,8.524,4.529C297.696,379.163,302.455,380.041,303.554,379.103z M288.844,356.805
					c-0.105-0.033-0.212-0.063-0.317-0.096c2.287,0.139,4.589-0.066,6.811-0.668c0.806,1.649,1.575,3.317,2.304,5.002
					C295.184,358.882,291.923,357.775,288.844,356.805z"/>
			</g>
                <path style="fill:#EDE9DA;"
                      d="M291.065,405.657c0.663,4.409,8.429,7.892,17.935,7.892s17.272-3.482,17.935-7.892H291.065z"/>
                <path style="fill:#EDE9DA;"
                      d="M318.73,426.886l-7.73-6.229l2-12l-7,1c0,2,0,11,0,11l-6.318,6.229H318.73z"/>
		</g>
            <g>
			<g>
				<path style="fill:#0D0029;" d="M386.608,221.724c0.418,2.281,0.381,4.643-0.107,6.911c-0.763,3.54-2.232-0.92-2.733-2.066
					c-1.787-4.087-2.875-4.426-7.281-4.207c-0.311,0.016-0.641,0.011-0.91-0.146c-0.539-0.315-0.581-1.134-0.238-1.656
					s0.943-0.807,1.527-1.029C379.562,218.501,385.837,217.521,386.608,221.724z"/>
                <path style="fill:#FF866C;" d="M337.755,188.368c0.228-0.736,0.473-1.484,0.714-2.261c0.497-1.603,1.417-3.152,3.394-2.958
					c0.12,0.012,0.243,0.037,0.341,0.106c0.187,0.132,0.24,0.388,0.226,0.616c-0.052,0.862-0.788,1.5-1.209,2.255
					c-0.893,1.601-0.477,3.85-0.247,5.58c0.118,0.884,0.236,1.769,0.353,2.653c0.094,0.703,0.186,1.427,0.007,2.113
					c-0.291,1.115-2.248,2.483-3.379,1.743c-0.98-0.641-1.118-2.381-1.19-3.425C336.607,192.461,337.109,190.46,337.755,188.368z"/>
                <path style="fill:#FF866C;" d="M415.824,342.372c1.227-1.209,0.839-2.832,0.453-4.317c-0.57-2.195-0.841-3.956-0.919-6.26
					c-0.039-1.158-0.408-2.565-1.533-2.838c-0.643-0.156-1.332,0.154-1.786,0.635c-0.454,0.482-0.714,1.112-0.931,1.738
					c-0.879,2.543-1.892,6.699-0.714,9.254C411.406,342.78,413.746,344.419,415.824,342.372z"/>
                <path style="fill:#5B2A9C;" d="M363.877,433.758c0.012-0.052,2.561,0.019,2.731,0.015c0.249-1.659,0.042-3.522,0.012-5.2
					c-0.031-1.713-0.09-3.426-0.177-5.138c-0.002-0.039-0.005-0.081-0.03-0.111c-0.034-0.041-0.095-0.044-0.148-0.045
					c-1.421-0.003-2.822-0.095-4.239-0.198c-0.128-0.009-0.264-0.017-0.379,0.042c-0.143,0.074-0.217,0.232-0.284,0.378
					c-1.095,2.398-2.924,4.444-5.154,5.848c-0.99,0.623-2.058,1.119-3.176,1.463c-1.388,0.427-6.663,1.586-2.971,3.07
					c1.868,0.751,4.095,0.432,6.052,0.354c1.331-0.053,2.691-0.068,3.993-0.379c1.48-0.354,2.304-1.221,3.499-1.958
					C363.961,432.426,364.02,433.145,363.877,433.758z"/>
                <path style="fill:#0D0029;" d="M356.28,427.138c2.455-0.002,4.91-0.109,7.357-0.319c0.668-0.057,1.34,0.001,2.009-0.068
					c0.376-0.039,1.135,0.067,1.435-0.128c0.19-0.124,0.236-0.379,0.264-0.605c0.107-0.857,0.215-1.714,0.322-2.571
					c0.518-4.134,1.341-8.215,1.87-12.357c0.539-4.219,0.906-8.461,1.037-12.713c0.122-3.977-0.264-7.917-0.236-11.862
					c0.028-4.068-0.242-8.168-1.291-12.113c-0.541-2.036-1.289-4.037-1.479-6.135c-0.36-3.98,2.535-8.911,3.572-12.789
					c1.337-4.999,2.471-10.053,3.397-15.145c1.815-9.971,2.837-20.086,3.046-30.219c0.259-12.563-10.385-17.438-20.52-10.626
					c-3.888,2.613-6.831,6.601-8.182,11.087c-0.961,3.191-1.128,6.559-1.289,9.888c-0.775,16.063-1.548,32.216,0.376,48.182
					c0.329,2.735,0.664,5.469,1.003,8.203c1.059,8.534,2.165,17.062,3.33,25.582c0.582,4.261,1.179,8.52,1.792,12.776
					C354.668,419.204,355.748,423.108,356.28,427.138z"/>
                <path style="fill:#5B2A9C;" d="M418.27,420.517c0.658-1.244,1.144-2.576,1.423-3.958c0.377,0.924,0.754,1.847,1.131,2.771
					c-0.094-0.229,2.184-1.683,2.269-2.108c0.119-0.596-1.001-2-1.308-2.51c-1.171-1.941-2.549-3.757-4.106-5.405
					c-2.03,1.711-4.289,3.149-6.699,4.264c0.683-0.316,1.59,3.418,1.544,3.908c-0.218,2.298-1.678,4.703-3.002,6.523
					c-1.024,1.408-2.637,4.959,0.663,3.719C413.642,426.422,416.546,423.776,418.27,420.517z"/>
                <path style="fill:#251842;" d="M371.754,360.406c0.216,2.597,0.442,5.223,1.263,7.697c0.764,2.302,2.022,4.407,3.368,6.425
					c3.506,5.259,7.655,10.053,11.791,14.832c7.751,8.955,15.501,17.909,23.252,26.864c2.774-1.862,5.547-3.724,8.321-5.587
					c-5.311-15.891-10.828-32.164-21.408-45.156c-0.719-0.883-1.48-1.786-1.774-2.886c-0.287-1.075-0.094-2.212,0.086-3.31
					c1.719-10.468,2.129-21.15,1.216-31.718c-0.698-8.078-4.616-17.354-10.498-23.128c-3.058-3.002-7.276-5.03-11.548-4.699
					c-1.561,0.121-3.145,0.578-4.336,1.595c-2.356,2.013-2.556,5.523-2.544,8.622C369.007,326.839,370.353,343.594,371.754,360.406z
					"/>
                <path style="fill:#5B2A9C;" d="M399.671,252.594c2.144,6.05,1.022,12.696,0.179,19.059c-2.213,16.692-2.328,33.661-0.341,50.382
					c0.072,0.604,0.121,1.293-0.29,1.742c-0.325,0.355-0.841,0.445-1.319,0.504c-6.371,0.786-13.059-0.493-18.437-3.998
					c-5.377-3.506-9.32-9.302-10.134-15.669c-4.728,9.704-16.685,15.248-27.146,12.587c8.263-18.04,13.623-37.406,15.811-57.127
					c0.675-6.086,1.297-12.762,5.628-17.091C373.229,233.375,395.432,240.634,399.671,252.594z"/>
                <path style="fill:#FFFFFF;" d="M369.033,264.584c0.034,2.777,0.157,5.634,1.284,8.172c5.329-8.694,10.657-17.388,15.986-26.083
					c4.252-6.938-8.336-6.254-11.796-3.54C368.838,247.58,368.955,258.228,369.033,264.584z"/>
                <path style="fill:#FF866C;" d="M374.86,227.043c0.02-0.212,0.045-0.423,0.074-0.632c0.176-1.278,0.484-2.559,1.126-3.678
					c1.081-1.883,3.534-3.129,5.722-2.828c4.48,0.616,3.918,6.038,4.033,9.255c0.122,3.417,0.384,6.828,0.784,10.223
					c0.138,1.171,0.928,3.367,0.627,4.48c-0.208,0.769-1.395,1.201-2.059,1.491c-2.063,0.902-8.846,3.166-10.508,0.562
					c-1.128-1.768,0.997-3.838,1.66-5.427c0.817-1.957,1.298-4.056,1.403-6.175c0.011-0.215,0.014-0.444-0.093-0.631
					c-0.133-0.232-0.72-0.476-0.947-0.654c-0.582-0.46-0.898-1.169-1.192-1.85C374.921,229.863,374.727,228.471,374.86,227.043z"/>
                <path style="fill:#5B2A9C;" d="M373.746,240.635c0.463-0.456,0.942-0.887,1.437-1.29c-4.711-0.938-9.312-2.429-13.677-4.433
					c-5.734-2.632-11.425-5.739-16.846-9.027c-0.432-0.262-0.878-0.541-1.147-0.969c-0.335-0.533-0.338-1.202-0.331-1.831
					c0.102-9.073-0.58-18.585,0.403-27.587c-0.74-0.077-9.022,0.141-9.047,0.369c-1.591,14.302-10.341,28.67-2.427,42.834
					c3.583,6.411,10.969,9.041,16.856,12.776c4.406,2.796,7.527,6.121,10.366,10.419c0.574,0.868,1.175,1.764,2.061,2.31
					c0.886,0.546,2.142,0.638,2.903-0.073c0.382-0.357,0.589-0.859,0.766-1.351c1.458-4.036,1.673-8.372,2.866-12.477
					C368.96,246.751,371.065,243.277,373.746,240.635z"/>
                <path style="fill:#5B2A9C;" d="M419.266,288.455c-0.815-5.097-2.831-9.914-4.911-14.637c-2.676-6.077-5.509-12.136-9.37-17.539
					c-2.323-3.251-5.032-6.258-8.168-8.746c-1.512-1.199-3.205-2.499-4.984-3.277c-2.218-0.969-2.104-0.546-2.934,1.95
					c-2.751,8.278-1.74,17.268,1.161,25.366c3.121,8.712,8.238,16.539,13.042,24.448c0.543,0.893,1.096,1.831,1.182,2.873
					c0.975,11.85,2.477,23.656,4.491,35.373c2.873-0.426,5.723-0.993,8.615-1.271c0.91-10.891,1.811-21.787,2.248-32.707
					C419.795,296.339,419.891,292.359,419.266,288.455z"/>
                <path style="fill:#FFFFFF;" d="M377.546,228.704c-0.417,0.158-0.523,0.73-0.363,1.146c0.361,0.933,1.641,1.231,2.551,0.815
					c0.91-0.416,1.49-1.329,1.876-2.252"/>
                <path style="fill:#0D0029;" d="M385.06,226.268c-0.409-0.051-0.793-0.335-1.022-0.691c-0.295-0.457-0.391-1.011-0.48-1.548
					c-0.148-0.89,0.088-1.963-1.038-2.245c-0.686-0.172-1.406-0.021-2.103,0.104c-1.361,0.245-2.74,0.391-4.122,0.437
					c-0.302,0.01-0.695-0.055-0.748-0.352c-0.05-0.279,0.332-0.576,0.494-0.77c0.219-0.262,0.463-0.473,0.758-0.646
					c0.616-0.36,1.33-0.536,2.023-0.678c2.584-0.528,6.306-1.766,7.347,1.484c0.342,1.067,0.338,2.143,0.278,3.255
					c-0.037,0.692-0.36,1.479-1.035,1.634C385.296,226.278,385.177,226.282,385.06,226.268z"/>
                <path style="fill:#FF866C;" d="M383.126,226.685c-0.135-0.68,0.498-2.135,1.299-2.21c0.805-0.075,1.765,1.26,1.788,1.95
					c0.026,0.771-0.64,1.494-1.409,1.552C384.034,228.036,383.276,227.442,383.126,226.685z"/>
                <path style="fill:#0D0029;"
                      d="M384.365,226.017c0.094-0.268,0.547-0.187,0.652,0.076c0.105,0.264-0.026,0.56-0.178,0.799"/>
                <path style="fill:#0D0029;" d="M377.555,236.363c1.015-1.084,1.996-2.2,2.935-3.35c-0.852,0.481-1.827,0.962-2.765,0.816
					C377.727,234.683,377.714,235.532,377.555,236.363z"/>
			</g>
                <g>
				<path style="fill:#0D0029;" d="M139.553,221.804c-1.633-2.248-4.174-3.827-6.654-3.431c-3.947,0.631-5.813,6.34-9.81,6.364
					c-0.915,0.005-1.802-0.313-2.714-0.372c-2.106-0.137-4.147,1.186-5.194,3.02c-1.046,1.833-1.191,4.083-0.752,6.147
					c0.78,3.664,3.78,7.072,7.523,7.243c2.26,0.103,4.324-0.951,6.083-2.277c1.598-1.205,2.596-3.262,4.281-4.215
					c2.849-1.613,6.131-1.435,8.169-4.552C142.011,227.393,141.303,224.214,139.553,221.804z"/>
                    <path style="fill:#FF866C;" d="M160.918,379.736c-0.602,8.482-1.79,16.922-3.563,25.239c-0.88,4.13-1.905,8.229-3.074,12.287
					c-1.077,3.74-1.974,8.16-3.818,11.591c-3.445-2.08-4.476-5.561-5.505-9.296c-2.421-8.785-4.881-17.894-5.484-26.993
					c-0.527-7.951,0.423-16.114,3.604-23.47c0.942-2.179,2.09-4.347,2.164-6.776c0.052-1.685-0.42-3.376-0.879-5.036
					c-2.872-10.391-5.413-21.187-3.809-31.521c1.404-9.048,12.87-20.684,21.351-9.191c2.485,3.368,2.326,8.542,2.679,12.37
					c0.694,7.528,0.647,15.01-0.381,22.381c-0.623,4.462-1.574,8.853-2.142,13.326C161.429,369.636,161.276,374.703,160.918,379.736
					z"/>
                    <path style="fill:#FF866C;" d="M122.465,383.996c1.225-4.713,1.973-9.36,4.446-13.571c2.687-4.576,5.34-9.086,7.523-13.936
					c4.247-9.432,7.172-19.462,8.627-29.705c0.554-3.898,0.895-7.894,0.107-11.751c-0.788-3.857-2.842-7.602-6.187-9.678
					c-6.129-3.804-14.663-0.7-19.124,4.969c-4.461,5.669-5.811,13.123-6.757,20.274c-1.167,8.818-1.028,18.038-2.406,26.787
					c-0.095,0.604-0.197,1.205-0.308,1.804c-1.595,8.653-3.335,17.295-5.77,25.757c-2.346,8.154-4.565,16.356-6.257,24.683
					c-1.129,5.562-2.065,11.163-2.805,16.789c-0.063,0.476-0.447,1.905,0.097,2.205c0.57,0.315,2.91-1.722,3.305-2.087
					c2.711-2.505,5.26-5.184,7.633-8.011c4.746-5.655,8.785-11.904,11.994-18.552C119.055,394.854,121.035,389.497,122.465,383.996z
					"/>
                    <path style="fill:#0D0029;" d="M169.231,348.698c3.059,0.051-1.105-38.531-1.726-41.677c-1.629-8.243-3.853-16.715-8.28-23.946
					c-1.084-1.77-2.302-3.447-3.623-5.047c-0.579-0.701-0.856-1.351-1.721-1.608c-0.798-0.237-1.784,0.14-2.605,0.098
					c-1.658-0.085-3.312-0.239-4.965-0.392c-3.132-0.288-6.272-0.591-9.421-0.479c-2.551,0.091-5.122,0.401-7.566,1.162
					c-2.473,0.77-4.105,2.129-6.192,3.52c-7.086,6.91-8.37,21.04-9.721,30.206c-1.221,8.288-5.649,28.834-6.87,37.122
					C106.541,347.657,169.229,348.698,169.231,348.698z"/>
                    <path style="fill:#FF866C;" d="M181.507,252.028c-1.178-5.294-3.064-10.464-5.584-15.342c-1.434-2.775-3.099-5.58-4.98-8.092
					c-1.888-2.521-3.987-4.92-5.42-7.747c-0.852-1.68-1.911-5.005-4.46-4.321c-0.586,0.157-1.099,0.568-1.381,1.106
					c-0.601,0.601-0.221,2.053-0.094,2.752c0.142,0.782,0.161,1.329,0.503,2.063c-0.269-0.187-0.534-0.383-0.813-0.557
					c-0.239-0.15-0.532-0.293-0.791-0.182c-0.146,0.062-0.25,0.196-0.316,0.34c-0.152,0.327-0.131,0.727,0.054,1.036
					c0.256,0.428,0.728,0.601,1.117,0.874c0.373,0.262,0.669,0.607,0.98,0.939c0.709,0.76,1.199,1.63,1.519,2.618
					c1.482,4.574,2.489,9.232,3.855,13.833c1.487,5.013,1.268,10.676,4.091,15.318c1.222,2.01,3.123,3.703,5.394,4.409
					c2.77,0.86,5.83-0.953,6.563-3.606C182.226,255.717,181.908,253.831,181.507,252.028z"/>
                    <path style="fill:#FF866C;" d="M179.105,264.747c-1.257,1.558-2.997,2.609-5.136,2.964c-2.391,0.397-4.868,0.169-7.308-0.106
					c-3.07-0.346-8.837-1.258-9.341-5.218c-0.275-2.162-0.355-4.335-0.751-6.508c-0.205-1.125-0.519-2.24-0.712-3.364
					c-0.139-0.814-0.257-2.423-0.124-3.216c1.907,0.374,3.95,1.669,5.746,2.465c1.083,0.48,2.196,0.969,3.38,1.033
					c1.183,0.065,2.47-0.385,3.076-1.403c0.857-1.44-0.457-2.758,1.627-3.343c1.749-0.491,3.67-0.409,5.454,0.083
					c0.819,0.226,1.281,0.599,1.983,0.99c0.812,0.452,1.765,0.565,2.576,1.032c2.569,1.479,2.466,4.616,2.129,7.097
					c-0.244,1.798-0.562,3.601-1.268,5.256C180.083,263.337,179.637,264.087,179.105,264.747z"/>
                    <path style="fill:#5B2A9C;" d="M160.164,260.363c0.084-3.277-0.283-6.55-0.078-9.819c-0.703-0.56-1.836-1.091-2.387-1.459
					c-1.023-0.684-2.054-1.357-3.099-2.008c-4.076-2.539-8.422-4.776-13.108-5.815c-0.553-0.123-1.115-0.228-1.676-0.286
					c-0.635-0.065-1.269-0.07-1.89,0.031c-0.378,0.061-0.758,0.166-1.054,0.396c-0.895,0.694-0.643,2.099-0.267,3.201
					c1.53,4.481,3.811,8.95,6.858,12.677c2.629,3.217,5.779,5.434,9.551,7.178c2.247,1.039,4.51,2.04,6.783,3.017
					C159.882,265.107,160.103,262.74,160.164,260.363z"/>
                    <path style="fill:#5B2A9C;" d="M121.101,282.38c3.366-0.692,6.994-0.687,10.418-1.158c3.086-0.424,6.18-0.797,9.268-1.203
					c4.846-0.638,9.668-1.412,14.33-2.829c-0.118-0.272-0.263-0.564-0.445-0.882c-0.933-1.63-2.117-3.049-3.144-4.552
					c-1.019-1.49-1.883-3.063-2.192-5.002c-0.493-3.094,0.567-6.215,0.651-9.347c0.336-12.607-15.64-21.445-25.477-13.254
					c-3.658,3.046-5.78,7.957-5.148,12.674c0.446,3.33,2.15,6.355,2.982,9.61C123.756,271.96,120.971,277.175,121.101,282.38z"/>
                    <path style="fill:#FF866C;" d="M90.777,270.369c0.713,2.943,2.748,5.809,4.656,7.75c2.915,2.965,6.551,5.192,10.367,6.801
					c1.973,0.832,4.017,1.502,6.101,1.995c1.853,0.439,4.422,1.31,6.336,0.962c0.064,0.386,0.359,0.686,0.639,0.96
					c1.136,1.109,2.276,2.285,3.947,2.119c1.858-0.184,2.959-1.264,2.756-3.181c-0.048-0.451-0.144-0.896-0.287-1.326
					c-0.12-0.36-0.276-0.715-0.522-1.003c-1.357-1.589-3.842-1.79-5.491-2.902c-1.432-0.965-2.594-2.227-3.919-3.323
					c-2.068-1.711-3.845-3.717-5.592-5.747c-0.659-0.766-1.336-1.562-1.633-2.528c-0.458-1.488,0.082-3.139,1.027-4.376
					c0.945-1.237,2.252-2.139,3.536-3.019c1.899-1.302,3.799-2.604,5.698-3.907c-2.324-3.454-5.709-6.028-9.031-8.536
					c-0.595-0.45-1.213-0.91-1.937-1.09c-1.037-0.258-2.125,0.099-3.1,0.536c-5.549,2.49-9.512,7.587-12.354,12.963
					c-0.612,1.157-1.19,2.36-1.386,3.654C90.434,268.222,90.519,269.301,90.777,270.369z"/>
                    <path style="fill:#5B2A9C;" d="M132.642,241.213c-11.33,1.141-22.24,4.998-31.563,11.127c0.016,0.015,0.03,0.03,0.046,0.045
					c4.289,4.042,9.208,7.666,13.706,11.574c0.218-0.006,0.438-0.003,0.651-0.037c1.742-0.282,19.324-9.356,19.244-9.596
					C133.332,250.069,132.625,245.624,132.642,241.213z"/>
                    <path style="fill:#0D0029;" d="M160.889,433.629c-3.275,0.312-6.395,0.065-9.376-1.487c-0.322-0.168-1.829-0.798-1.904-1.146
					c0.056,0.259,0.316,2.703,0.513,2.629c-0.855,0.32-1.81,0.368-2.693,0.135c-0.233-0.062-0.303-6.445-0.341-7.092
					c-0.08-1.369,0.395-1.165,1.629-1.179c1.117-0.012,2.244-0.092,3.311-0.445c1.254,1.788,3.129,3.17,4.855,4.475
					c1.061,0.802,2.143,1.581,3.287,2.261c0.525,0.312,1.312,0.543,1.764,0.935c0.717,0.621,0.029,0.798-0.523,0.86
					C161.237,433.595,161.062,433.613,160.889,433.629z"/>
                    <path style="fill:#FF866C;" d="M137.563,238.735c-0.001-0.017-0.002-0.034-0.003-0.051c-0.125-2.036,2.073-3.23,2.75-5.128
					c0.575-1.612,0.82-3.554,0.402-5.233c-0.634-2.541-2.098-6.195-4.975-6.718c-4.433-0.804-6.746,4.223-6.459,7.867
					c0.146,1.859,0.689,3.667,0.857,5.524c0.222,2.452-0.213,4.911-0.291,7.372c-0.102,3.191,3.383,4.457,6.096,4.567
					c0.696,0.028,1.23-0.084,1.844-0.444c1.254-0.735,0.973-0.747,0.758-1.948C138.191,242.572,137.694,240.767,137.563,238.735z"/>
                    <path style="fill:#0D0029;" d="M82.395,432.871c-0.087,0.411,0.787,0.564,1.694,0.677c1.318,0.165,2.654,0.319,3.985,0.253
					c0.696-0.035,1.39-0.122,2.066-0.299c0.51-0.133,1.323-0.698,1.807-0.698c1.026-0.505,2.053-1.01,3.079-1.515
					c0.213-0.105,0.441-0.224,0.549-0.436c0.062,0.256-0.015,2.815-0.09,2.808c0.848,0.088,1.744-0.315,2.535,0.005
					c0.01,0.004,0.477-6.088,0.424-6.697c-0.119-1.374-0.02-1.633-1.343-1.808c-1.235-0.163-2.531-0.129-3.776-0.192
					c-0.765,1.286-1.789,2.418-2.993,3.308c-1.006,0.744-2.127,1.315-3.243,1.883c-1.313,0.668-2.744,1.25-3.993,2.031
					C82.642,432.476,82.432,432.697,82.395,432.871z"/>
                    <path style="fill:#0D0029;" d="M138.66,218.045c-1.557-0.383-3.294,0.068-4.735,0.846c-1.719,0.928-3.385,2.081-5.058,3.052
					c-1.783,1.034-2.566,2.981-2.461,5.045c0.058,1.145,0.676,3.977,2.193,4.081c1.788,0.122,2.215-2.85,2.738-4.018
					c1.204-2.692,2.35-2.683,5.131-2.91c1.241-0.101,2.525-0.381,3.485-1.175c0.96-0.793,1.488-2.215,0.94-3.334
					c-0.282-0.575-0.806-1.004-1.383-1.283C139.235,218.217,138.951,218.116,138.66,218.045z"/>
                    <path style="fill:#FF866C;" d="M131.678,227.809c-0.436-0.405-1.111-0.484-1.674-0.292c-0.563,0.192-1.022,0.618-1.363,1.106
					c-0.217,0.31-0.395,0.652-0.479,1.02c-0.232,1.019,0.375,2.163,1.35,2.542c0.974,0.379,2.194-0.055,2.712-0.963"/>
                    <path style="fill:#FFFFFF;"
                          d="M135.493,231.783c0.425,0.899,1.559,1.393,2.507,1.091c0.948-0.302,1.588-1.36,1.415-2.339"/>
                    <path style="fill:#0D0029;" d="M136.812,236.236c-0.456,0.063-0.958,0.108-1.414,0.003c0.913,0.902,1.819,1.869,2.206,3.077
					c-0.001-0.014,0-0.029-0.001-0.044c-0.074-0.276,0.388-2.437,0.881-3.037c0.001-0.008,0.003-0.015,0.004-0.023l0.049-0.041
					c0.09-0.103,0.186-0.196,0.289-0.282c-0.06,0.008-0.12,0.009-0.18,0.016C138.07,236.122,137.428,236.15,136.812,236.236z"/>
                    <path style="fill:#0D0029;" d="M130.66,229.064c-0.361,0.078-0.682,0.355-0.771,0.713c-0.09,0.358,0.085,0.776,0.42,0.93
					c0.134,0.061,0.283,0.08,0.429,0.099c0.002-0.043,0.004-0.087,0.005-0.13"/>
			</g>
                <rect x="159" y="125.657" style="fill:#6C4D8C;" width="3" height="99"/>
                <rect x="339" y="125.657" style="fill:#6C4D8C;" width="3" height="99"/>
                <path style="fill:#FF866C;" d="M164.084,218.01c-0.408-0.573-0.9-1.086-1.457-1.516c-0.796-0.614-1.972-1.04-2.762-0.418
				c-0.279,0.219-0.46,0.538-0.62,0.854c-0.44,0.867-0.787,1.819-0.727,2.789c0.076,1.239,0.795,2.334,1.489,3.362
				c0.662,0.98,1.325,1.961,1.987,2.941"/>
                <rect x="156" y="81.657" style="fill:#DBC8AF;" width="188" height="62"/>
                <g>
				<path style="fill:#5B2A9C;" d="M194.396,126.125h-3.182l-3.355-14.536l-1.763-8.214h-0.129l-1.72,8.042l-3.354,14.707h-3.182
					l-5.935-29.931h3.742l2.494,13.718l1.376,8.515h0.129l1.806-8.386l3.225-13.848h3.053l3.226,13.891l1.806,8.343h0.129
					l1.333-8.343l2.451-13.891h3.784L194.396,126.125z"/>
                    <path style="fill:#5B2A9C;" d="M203.943,126.125V96.194h15.869v3.354h-12.299v9.805h10.536v3.226h-10.536v10.063h12.299v3.483
					H203.943z"/>
                    <path style="fill:#5B2A9C;" d="M223.51,126.125V96.194h3.569v26.448h11.955v3.483H223.51z"/>
                    <path style="fill:#5B2A9C;" d="M258.901,120.578c-0.516,1.892-1.512,3.333-2.988,4.322c-1.478,0.989-3.247,1.483-5.311,1.483
					c-1.348,0-2.566-0.222-3.656-0.666c-1.09-0.444-2.007-1.06-2.752-1.849c-0.746-0.788-1.319-1.727-1.72-2.817
					c-0.402-1.089-0.602-2.293-0.602-3.612v-12.557c0-1.261,0.193-2.437,0.58-3.526c0.387-1.089,0.953-2.028,1.699-2.817
					c0.745-0.788,1.662-1.412,2.752-1.871c1.089-0.458,2.322-0.688,3.699-0.688c2.035,0,3.79,0.502,5.268,1.505
					c1.476,1.004,2.486,2.408,3.031,4.214l-3.398,1.334c-0.286-1.089-0.838-1.964-1.655-2.623c-0.817-0.659-1.899-0.989-3.246-0.989
					c-0.832,0-1.57,0.151-2.215,0.452c-0.645,0.301-1.183,0.695-1.613,1.183c-0.43,0.488-0.76,1.061-0.989,1.72
					c-0.229,0.66-0.344,1.333-0.344,2.021v12.729c0,0.717,0.114,1.405,0.344,2.064c0.229,0.66,0.559,1.24,0.989,1.742
					c0.43,0.502,0.968,0.903,1.613,1.204c0.645,0.301,1.383,0.452,2.215,0.452c1.29,0,2.358-0.329,3.204-0.989
					c0.846-0.659,1.412-1.548,1.698-2.666L258.901,120.578z"/>
                    <path style="fill:#5B2A9C;" d="M279.329,117.395c0,1.376-0.216,2.617-0.646,3.72c-0.43,1.104-1.032,2.05-1.806,2.838
					c-0.774,0.789-1.699,1.391-2.774,1.806c-1.075,0.415-2.258,0.623-3.548,0.623c-1.577,0-2.924-0.258-4.042-0.774
					c-1.118-0.516-2.029-1.211-2.732-2.086c-0.702-0.874-1.211-1.885-1.526-3.032c-0.315-1.146-0.473-2.35-0.473-3.612v-11.998
					c0-1.003,0.157-2.036,0.473-3.097c0.315-1.06,0.817-2.021,1.505-2.881c0.689-0.86,1.592-1.562,2.71-2.107
					c1.118-0.544,2.479-0.817,4.085-0.817c1.52,0,2.831,0.258,3.935,0.774c1.104,0.516,2.015,1.197,2.731,2.043
					c0.716,0.846,1.247,1.8,1.591,2.86c0.344,1.061,0.517,2.136,0.517,3.226V117.395z M275.673,104.924
					c0-0.458-0.079-1.003-0.237-1.634c-0.158-0.63-0.433-1.232-0.82-1.806c-0.389-0.573-0.914-1.068-1.576-1.484
					c-0.662-0.415-1.512-0.623-2.548-0.623s-1.886,0.194-2.548,0.58c-0.663,0.387-1.195,0.86-1.598,1.42
					c-0.403,0.559-0.684,1.168-0.843,1.828c-0.158,0.66-0.236,1.262-0.236,1.806l0.043,11.826c0,0.86,0.093,1.67,0.28,2.43
					c0.188,0.76,0.497,1.419,0.929,1.979c0.432,0.559,0.986,1.004,1.662,1.333c0.677,0.33,1.49,0.495,2.44,0.495
					c0.69,0,1.345-0.122,1.965-0.366c0.619-0.243,1.151-0.595,1.598-1.054c0.446-0.458,0.806-1.017,1.079-1.677
					c0.273-0.659,0.41-1.404,0.41-2.236V104.924z"/>
                    <path style="fill:#5B2A9C;" d="M303.368,126.125v-20.9l-0.172,0.043l-2.365,5.763l-4.129,9.246h-2.451l-4.171-9.418
					l-2.279-5.634l-0.173,0.043v20.857h-3.569V96.194h3.612l4.946,11.31l2.838,6.924h0.129l2.925-7.01l4.859-11.224h3.569v29.931
					H303.368z"/>
                    <path style="fill:#5B2A9C;" d="M312.27,126.125V96.194h15.869v3.354h-12.3v9.805h10.536v3.226h-10.536v10.063h12.3v3.483H312.27
					z"/>
			</g>
                <path style="fill:#FF866C;" d="M336.332,190.451c0.02-0.698,0.1-1.394,0.239-2.077c0.295-1.449,1.444-2.404,2.683-3.134
				c0.471-0.278,0.963-0.535,1.496-0.654c2.556-0.572,4.322,2.144,3.078,4.348c-0.301,0.534-0.866,1.163-1.464,1.372
				c-0.569,0.199-1.067-0.026-1.249,0.763c-0.243,1.051-0.129,2.377-0.99,3.183c-0.619,0.58-2.152,1.223-2.896,0.626
				c-0.298-0.239-0.425-0.629-0.52-0.999C336.426,192.763,336.298,191.604,336.332,190.451z"/>
		</g>
            <path style="fill:#251842;"
                  d="M153.186,366.282c0.26,1.303,1.879,2,3.15,1.611c1.271-0.389,2.162-1.567,2.623-2.814"/>
            <path style="fill:#251842;"
                  d="M108.46,368.611c-0.865,1.178,0.108,2.862,1.546,3.241c1.438,0.379,3.027-0.207,4.291-1.026"/>
	</g>
</g>
    <g id="DESIGNED_BY_FREEPIK">
	<g id="XMLID_302_">
		<g id="XMLID_328_">
			<g id="XMLID_351_">
				<path id="XMLID_376_" style="fill:#112129;" d="M260.104,468.492c-0.432,0.443-0.803,0.931-1.108,1.453l-0.465-0.241
					c-0.067-0.298-0.349-0.503-0.659-0.466c-0.331,0.039-0.568,0.339-0.529,0.67c0.039,0.331,0.339,0.568,0.67,0.529
					c0.065-0.008,0.127-0.026,0.184-0.052l0.451,0.234c-0.251,0.554-0.433,1.139-0.539,1.744l0.746,0.132
					c0.23-1.306,0.85-2.507,1.792-3.473L260.104,468.492z"/>
                <path id="XMLID_375_" style="fill:#112129;" d="M265.592,466.19c-0.171,0-0.341,0.006-0.51,0.017l-0.074-0.626
					c0.188-0.149,0.296-0.389,0.266-0.645c-0.046-0.393-0.402-0.674-0.795-0.628c-0.393,0.046-0.674,0.402-0.628,0.795
					c0.03,0.254,0.189,0.461,0.405,0.564l0.073,0.624c-0.714,0.116-1.403,0.332-2.06,0.646l0.327,0.684
					c0.934-0.447,1.942-0.673,2.995-0.673c0.496,0,0.993,0.053,1.475,0.158l0.16-0.741
					C266.692,466.249,266.142,466.19,265.592,466.19z"/>
                <path id="XMLID_374_" style="fill:#112129;" d="M272.194,468.737c0.331-0.04,0.566-0.342,0.526-0.672
					c-0.04-0.331-0.341-0.566-0.672-0.526c-0.309,0.038-0.535,0.304-0.53,0.609l-0.416,0.363c-0.418-0.43-0.89-0.813-1.408-1.139
					l-0.404,0.641c1.134,0.715,2.021,1.726,2.563,2.925l0.69-0.313c-0.251-0.554-0.567-1.072-0.942-1.545l0.402-0.351
					C272.065,468.742,272.129,468.745,272.194,468.737z"/>
                <path id="XMLID_373_" style="fill:#112129;" d="M265.044,476.398c-0.386,0.023-0.775,0.035-1.157,0.035
					c-0.88,0-1.733-0.061-2.478-0.179c-0.39-0.062-0.846-0.155-1.27-0.292c1.047,1.861,3.07,3.125,5.388,3.125
					c2.855,0,5.262-1.916,5.949-4.504c-0.682,0.449-1.505,0.825-2.458,1.123C267.839,476.073,266.463,476.313,265.044,476.398z"/>
                <path id="XMLID_352_" style="fill:#112129;" d="M265.592,467.706c-3.352,0-6.08,2.666-6.08,5.943
					c0,0.426,0.046,0.849,0.137,1.261c0.674,0.483,2.706,0.89,5.348,0.731c2.879-0.173,5.297-0.957,6.672-2.159
					c-0.005-0.195-0.021-0.39-0.045-0.582C271.244,469.939,268.65,467.706,265.592,467.706z M263.432,474.221
					c-1.02,0-1.85-0.83-1.85-1.85c0-1.02,0.83-1.85,1.85-1.85c1.02,0,1.85,0.83,1.85,1.85
					C265.282,473.391,264.452,474.221,263.432,474.221z M268.17,473.312c-0.75,0-1.36-0.61-1.36-1.36c0-0.75,0.61-1.361,1.36-1.361
					s1.36,0.61,1.36,1.361C269.53,472.702,268.92,473.312,268.17,473.312z"/>
			</g>
            <path id="XMLID_349_" style="fill:#112129;" d="M281.595,469.573c-0.295-0.116-0.805-0.309-1.382-0.237
				c-0.551,0.069-0.844,0.341-0.844,1.007v0.866h2.228v1.717h-2.228v5.455h-1.932v-5.455h-1.34v-1.717h1.34v-0.888
				c0-1.68,0.896-2.783,2.568-2.783c0.643,0,1.157,0.122,1.59,0.308L281.595,469.573z"/>
            <path id="XMLID_347_" style="fill:#112129;" d="M286.298,472.905c-0.177-0.03-0.358-0.046-0.526-0.046
				c-0.896,0-1.51,0.548-1.51,1.613v3.908h-1.932v-7.172h1.873v0.785c0.451-0.673,1.14-0.977,2.021-0.977
				c0.414,0,0.848,0.128,1.094,0.337L286.298,472.905z"/>
            <path id="XMLID_344_" style="fill:#112129;" d="M293.965,474.783c0,0.222-0.015,0.489-0.037,0.651h-5.085
				c0.207,1.036,0.933,1.488,1.843,1.488c0.622,0,1.295-0.252,1.813-0.688l1.133,1.243c-0.814,0.748-1.85,1.088-3.057,1.088
				c-2.198,0-3.723-1.495-3.723-3.753c0-2.258,1.48-3.797,3.626-3.797C292.544,471.016,293.958,472.548,293.965,474.783z
				 M288.851,474.117h3.175c-0.178-0.918-0.733-1.436-1.562-1.436C289.554,472.681,289.021,473.229,288.851,474.117z"/>
            <path id="XMLID_341_" style="fill:#112129;" d="M301.618,474.783c0,0.222-0.015,0.489-0.037,0.651h-5.085
				c0.207,1.036,0.933,1.488,1.843,1.488c0.622,0,1.295-0.252,1.813-0.688l1.132,1.243c-0.814,0.748-1.85,1.088-3.057,1.088
				c-2.198,0-3.723-1.495-3.723-3.753c0-2.258,1.48-3.797,3.627-3.797C300.197,471.016,301.611,472.548,301.618,474.783z
				 M296.504,474.117h3.175c-0.178-0.918-0.733-1.436-1.562-1.436C297.207,472.681,296.674,473.229,296.504,474.117z"/>
            <path id="XMLID_335_" style="fill:#112129;" d="M309.964,474.791c0,2.154-1.495,3.775-3.471,3.775
				c-0.962,0-1.643-0.378-2.109-0.933v3.708h-1.924v-10.133h1.887V472c0.466-0.585,1.155-0.984,2.139-0.984
				C308.469,471.016,309.964,472.637,309.964,474.791z M304.287,474.791c0,1.132,0.748,1.976,1.843,1.976
				c1.14,0,1.85-0.881,1.85-1.976c0-1.095-0.71-1.976-1.85-1.976C305.035,472.814,304.287,473.658,304.287,474.791z"/>
            <path id="XMLID_331_" style="fill:#112129;" d="M313.068,468.862c0,0.696-0.54,1.229-1.236,1.229
				c-0.696,0-1.229-0.533-1.229-1.229c0-0.696,0.533-1.243,1.229-1.243C312.527,467.619,313.068,468.166,313.068,468.862z
				 M312.809,478.38h-1.932v-7.172h1.932V478.38z"/>
            <path id="XMLID_329_" style="fill:#112129;" d="M316.032,473.762l2.701-2.554h2.368l-3.479,3.375l3.501,3.797h-2.376
				l-2.716-2.901v2.901H314.1v-10.658h1.932V473.762z"/>
		</g>
        <g id="XMLID_410_">
			<path id="XMLID_435_" style="fill:#112129;" d="M184.412,478.315v-1.055c-0.527,0.718-1.391,1.23-2.387,1.23
				c-1.846,0-3.149-1.406-3.149-3.706c0-2.256,1.289-3.721,3.149-3.721c0.952,0,1.816,0.469,2.387,1.245v-3.765h1.099v9.77H184.412z
				 M184.412,476.396v-3.208c-0.395-0.615-1.245-1.143-2.124-1.143c-1.421,0-2.27,1.172-2.27,2.739c0,1.567,0.85,2.724,2.27,2.724
				C183.168,477.51,184.017,477.012,184.412,476.396z"/>
            <path id="XMLID_432_" style="fill:#112129;" d="M186.932,474.771c0-2.051,1.465-3.706,3.486-3.706
				c2.139,0,3.398,1.67,3.398,3.794v0.279h-5.727c0.088,1.333,1.025,2.446,2.549,2.446c0.805,0,1.626-0.322,2.182-0.893l0.527,0.718
				c-0.703,0.703-1.655,1.084-2.812,1.084C188.44,478.491,186.932,476.982,186.932,474.771z M190.403,471.973
				c-1.509,0-2.256,1.274-2.314,2.358h4.643C192.718,473.276,192.015,471.973,190.403,471.973z"/>
            <path id="XMLID_430_" style="fill:#112129;" d="M194.607,477.378l0.571-0.791c0.469,0.542,1.362,1.011,2.329,1.011
				c1.084,0,1.67-0.513,1.67-1.216c0-1.714-4.38-0.659-4.38-3.281c0-1.098,0.952-2.036,2.636-2.036c1.201,0,2.051,0.454,2.622,1.025
				l-0.513,0.762c-0.424-0.513-1.201-0.894-2.109-0.894c-0.967,0-1.567,0.483-1.567,1.113c0,1.552,4.38,0.527,4.38,3.281
				c0,1.187-0.952,2.138-2.783,2.138C196.306,478.491,195.325,478.139,194.607,477.378z"/>
            <path id="XMLID_427_" style="fill:#112129;" d="M201.477,469.497c0-0.41,0.337-0.747,0.732-0.747c0.41,0,0.747,0.337,0.747,0.747
				c0,0.41-0.337,0.732-0.747,0.732C201.814,470.229,201.477,469.908,201.477,469.497z M201.667,478.315v-7.075h1.099v7.075H201.667
				z"/>
            <path id="XMLID_424_" style="fill:#112129;" d="M204.582,480.132l0.556-0.82c0.586,0.703,1.289,0.967,2.3,0.967
				c1.172,0,2.27-0.571,2.27-2.124v-1.011c-0.513,0.718-1.377,1.26-2.373,1.26c-1.845,0-3.149-1.377-3.149-3.662
				c0-2.27,1.289-3.676,3.149-3.676c0.952,0,1.802,0.469,2.373,1.245v-1.069h1.098v6.87c0,2.344-1.641,3.076-3.369,3.076
				C206.237,481.186,205.417,480.952,204.582,480.132z M209.709,476.279v-3.091c-0.381-0.615-1.23-1.143-2.109-1.143
				c-1.421,0-2.27,1.128-2.27,2.695c0,1.553,0.849,2.695,2.27,2.695C208.478,477.436,209.328,476.895,209.709,476.279z"/>
            <path id="XMLID_422_" style="fill:#112129;" d="M217.413,478.315v-4.629c0-1.245-0.63-1.641-1.582-1.641
				c-0.864,0-1.685,0.527-2.095,1.099v5.17h-1.099v-7.075h1.099v1.025c0.498-0.586,1.464-1.201,2.519-1.201
				c1.479,0,2.256,0.747,2.256,2.285v4.966H217.413z"/>
            <path id="XMLID_419_" style="fill:#112129;" d="M219.932,474.771c0-2.051,1.465-3.706,3.486-3.706
				c2.139,0,3.398,1.67,3.398,3.794v0.279h-5.727c0.088,1.333,1.025,2.446,2.548,2.446c0.806,0,1.626-0.322,2.183-0.893l0.527,0.718
				c-0.703,0.703-1.655,1.084-2.812,1.084C221.441,478.491,219.932,476.982,219.932,474.771z M223.404,471.973
				c-1.509,0-2.256,1.274-2.314,2.358h4.643C225.718,473.276,225.015,471.973,223.404,471.973z"/>
            <path id="XMLID_416_" style="fill:#112129;" d="M233.35,478.315v-1.055c-0.527,0.718-1.392,1.23-2.388,1.23
				c-1.846,0-3.149-1.406-3.149-3.706c0-2.256,1.289-3.721,3.149-3.721c0.952,0,1.817,0.469,2.388,1.245v-3.765h1.098v9.77H233.35z
				 M233.35,476.396v-3.208c-0.396-0.615-1.245-1.143-2.124-1.143c-1.421,0-2.27,1.172-2.27,2.739c0,1.567,0.849,2.724,2.27,2.724
				C232.105,477.51,232.954,477.012,233.35,476.396z"/>
            <path id="XMLID_413_" style="fill:#112129;" d="M239.692,478.315v-9.77h1.098v3.765c0.572-0.776,1.421-1.245,2.388-1.245
				c1.845,0,3.149,1.465,3.149,3.721c0,2.299-1.304,3.706-3.149,3.706c-0.996,0-1.86-0.513-2.388-1.23v1.055H239.692z M242.9,477.51
				c1.436,0,2.285-1.157,2.285-2.724c0-1.568-0.85-2.739-2.285-2.739c-0.864,0-1.728,0.527-2.109,1.143v3.208
				C241.171,477.012,242.036,477.51,242.9,477.51z"/>
            <path id="XMLID_411_" style="fill:#112129;" d="M247.528,480.088c0.161,0.073,0.425,0.117,0.601,0.117
				c0.483,0,0.805-0.161,1.055-0.747l0.469-1.069l-2.959-7.148h1.187l2.358,5.801l2.344-5.801h1.201l-3.545,8.51
				c-0.425,1.025-1.143,1.421-2.08,1.435c-0.234,0-0.601-0.044-0.805-0.103L247.528,480.088z"/>
		</g>
	</g>
</g>
</svg>
